<svg width="30" height="30" viewBox="0 0 30 30" fill="none" xmlns="http://www.w3.org/2000/svg">
<path d="M24.5266 19.7282C23.7935 19.7282 23.0971 20.0153 22.5718 20.5345C22.0464 21.0599 21.7532 21.7441 21.7532 22.4771C21.7532 23.2101 22.0403 23.8943 22.5718 24.4197C23.1032 24.9389 23.7935 25.226 24.5266 25.226C26.0293 25.226 27.2511 23.9921 27.2511 22.4771C27.2511 20.9621 26.0293 19.7282 24.5266 19.7282ZM24.5266 24.0043C23.6836 24.0043 22.975 23.3079 22.975 22.4771C22.975 21.6463 23.6836 20.9499 24.5266 20.9499C25.3574 20.9499 26.0293 21.6341 26.0293 22.4771C26.0293 23.3201 25.3574 24.0043 24.5266 24.0043ZM25.2352 10.5712C25.1252 10.4673 24.9786 10.4123 24.8259 10.4123H21.6921C21.3561 10.4123 21.0812 10.6872 21.0812 11.0232V16.0324C21.0812 16.3684 21.3561 16.6433 21.6921 16.6433H26.6646C27.0006 16.6433 27.2755 16.3684 27.2755 16.0324V12.6787C27.2755 12.5076 27.2022 12.3427 27.0739 12.2266L25.2352 10.5712ZM26.0538 15.4215H22.303V11.628H24.5877L26.0538 12.9475V15.4215ZM9.60904 19.7282C8.87599 19.7282 8.1796 20.0153 7.65425 20.5345C7.12889 21.0599 6.83568 21.7441 6.83568 22.4771C6.83568 23.2101 7.12279 23.8943 7.65425 24.4197C8.18571 24.9389 8.87599 25.226 9.60904 25.226C11.1118 25.226 12.3335 23.9921 12.3335 22.4771C12.3335 20.9621 11.1118 19.7282 9.60904 19.7282ZM9.60904 24.0043C8.76604 24.0043 8.05742 23.3079 8.05742 22.4771C8.05742 21.6463 8.76604 20.9499 9.60904 20.9499C10.4398 20.9499 11.1118 21.6341 11.1118 22.4771C11.1118 23.3201 10.4398 24.0043 9.60904 24.0043ZM5.53451 20.4795H4.30666V18.8546C4.30666 18.5186 4.03177 18.2437 3.69579 18.2437C3.3598 18.2437 3.08491 18.5186 3.08491 18.8546V21.0904C3.08491 21.4264 3.3598 21.7013 3.69579 21.7013H5.53451C5.87049 21.7013 6.14539 21.4264 6.14539 21.0904C6.14539 20.7544 5.87049 20.4795 5.53451 20.4795ZM8.63164 17.1503C8.63164 16.8143 8.35675 16.5394 8.02077 16.5394H0.610874C0.274893 16.5394 0 16.8143 0 17.1503C0 17.4863 0.274893 17.7612 0.610874 17.7612H8.02077C8.35675 17.7612 8.63164 17.4924 8.63164 17.1503ZM1.85095 14.945L9.26084 14.9878C9.59682 14.9878 9.87172 14.719 9.87782 14.383C9.88393 14.0409 9.60904 13.766 9.27306 13.766L1.86316 13.7233C1.85706 13.7233 1.85706 13.7233 1.85706 13.7233C1.52108 13.7233 1.24618 13.9921 1.24618 14.328C1.24007 14.6701 1.51497 14.945 1.85095 14.945ZM3.09713 12.1717H10.507C10.843 12.1717 11.1179 11.8968 11.1179 11.5608C11.1179 11.2248 10.843 10.9499 10.507 10.9499H3.09713C2.76115 10.9499 2.48626 11.2248 2.48626 11.5608C2.48626 11.8968 2.76115 12.1717 3.09713 12.1717ZM29.774 11.347L25.4001 7.72451C25.2902 7.63287 25.1558 7.58401 25.0092 7.58401H19.8656V5.38486C19.8656 5.04888 19.5907 4.77399 19.2547 4.77399H3.69579C3.3598 4.77399 3.08491 5.04888 3.08491 5.38486V9.85646C3.08491 10.1924 3.3598 10.4673 3.69579 10.4673C4.03177 10.4673 4.30666 10.1924 4.30666 9.85646V5.99573H18.65V20.4795H13.6408C13.3048 20.4795 13.0299 20.7544 13.0299 21.0904C13.0299 21.4264 13.3048 21.7013 13.6408 21.7013H21.0996C21.4356 21.7013 21.7104 21.4264 21.7104 21.0904C21.7104 20.7544 21.4356 20.4795 21.0996 20.4795H19.8717V8.80575H24.7954L28.7783 12.1045L28.7355 20.4673H28.1002C27.7642 20.4673 27.4893 20.7422 27.4893 21.0782C27.4893 21.4142 27.7642 21.6891 28.1002 21.6891H29.3403C29.6762 21.6891 29.9511 21.4203 29.9511 21.0843L30 11.8235C29.9939 11.6402 29.9145 11.4631 29.774 11.347Z" fill="black"/>
</svg>
